<?xml version="1.0" encoding="utf-8"?>
<svg version="1.1" id="Layer_1" xmlns="http://www.w3.org/2000/svg" xmlns:xlink="http://www.w3.org/1999/xlink" x="0px" y="0px"
	 width="864px" height="864px" viewBox="0 0 864 864" enable-background="new 0 0 864 864" xml:space="preserve">
<metadata><?xpacket begin="﻿" id="W5M0MpCehiHzreSzNTczkc9d"?>                                                                                                                                    
<?xpacket end="w"?>
	</metadata>
<g>
	<path fill="#E50051" d="M678.168,117.6995c0.0175,0.0184,0.0344,0.0342,0.052,0.0528c0.264-9.4158-4.1091-17.0661-9.4029-24.3101
		c-8.8943-12.1769-20.4886-21.319-33.2278-29.1125c-2.627-1.6074-5.4752-2.8003-8.5411-3.3648l0,0
		c-0.5678-5.6865-3.8814-10.2194-6.4391-15.0448c-4.9142-9.2687-12.746-15.7376-20.7759-22.1898
		c-1.6073-1.2903-7.4421-3.4324-9.1255-4.343c-0.3859-0.0018-11.1978-3.0613-23.4487-0.0876
		c-6.4985,1.5775-12.6274,2.8547-18.2642,5.6402c-14.9903,7.4042-25.129,19.9771-34.6208,33.4211
		c-4.9274,6.975-7.8977,14.868-10.2211,22.3994c-4.1156,13.3534-6.6503,27.3417-7.7128,41.4904
		c-0.9507,12.6751-1.459,25.2708,0.0132,37.9326c1.1848,10.1949,3.244,20.1982,5.7888,30.1122
		c3.0231,11.7643,20.4819,40.1242,25.538,51.1719c4.7128,10.2972,9.5977,20.5166,14.3632,30.7892
		c0.4292,0.9274,1.6239,2.1633-0.4059,2.8203c-0.0037-0.0013-0.0073-0.0027-0.011-0.0042c0.0003,0.0058,0.0009,0.0115,0.0012,0.0173
		c4.3265,4.4243,6.5742,9.8531,7.6665,15.848l0,0c0.2839,0.2427,0.5712,0.4886,0.8615,0.7344
		c0.1403-0.1535,0.316-0.3132,0.482-0.4777c0.2906-0.2881,0.5515-0.5914,0.5406-0.9031c0.0109,0.3117-0.2501,0.615-0.5406,0.9031
		c-0.166,0.1647-0.3417,0.3243-0.482,0.4777c4.1782,5.9274,5.5742,12.8187,7.6371,19.6189
		c1.6367,5.398,2.4917,10.7147,3.3035,16.1882c1.7492,11.7987-3.5678,22.355-13.7988,27.4044
		c-3.076,1.5164-6.1386,1.1999-9.4918-0.7508c-9.089-5.2951-13.7987-14.137-19.4589-22.2936
		c-2.8317-4.0843-6.5644-7.6291-8.9075-11.949c-3.68-6.7937-11.1522-9.954-14.8551-16.6405
		c-1.1683-2.1121-4.2377-1.5197-6.2509-3.0693c-10.9572-8.4339-23.0858-14.7492-36.7196-17.4639
		c-12.5149-2.4916-25.0926-4.6519-37.8186-6.0263c-21.4788-2.3217-42.8055-2.6287-63.9213,2.5975
		c-16.5114,4.0825-32.7395,9.0116-47.4163,17.9174c-9.2538,5.614-17.2509,12.8186-25.2243,20.109
		c-12.9737,11.8632-24.4987,25.2229-37.9673,36.5448c-8.0562,6.7707-16.9836,12.3402-26.0696,17.5909
		c-9.2805,5.3665-17.6305,11.8497-25.1453,19.4472c-0.7492,0.7575-1.3399,1.6963-1.8942,2.6138
		c-2.3434,3.8697-1.0697,6.3615,3.4488,6.2955c4.4124-0.0643,8.825-0.5364,12.9867-2.2428l0,0l0.0033,0.0052l0,0
		c0.2507,1.4802-0.9142,2.15-1.7493,2.9754c-6.65,6.5627-10.3202,14.5262-11.2309,23.7936
		c-0.1386,1.4289,0.3761,3.0363,1.3727,3.5675c2.0795,1.1092,4.4161,0.6966,6.6371-0.1352
		c4.4293-1.6635,6.7591-5.7625,10.1055-8.6734c6.6371-5.7789,13.053-11.8119,20.1027-18.2326
		c-0.8713,3.4585-3.1518,5.434-4.9508,7.0213c-3.8182,3.3761-5.0163,8.4192-8.7754,11.911
		c-1.8219,1.6898-1.1254,6.0429-1.977,9.1684c-0.3863,1.4292-1.8382,1.9507-1.779,3.459c0.0959,2.5112-0.7523,5.4654,2.2179,6.7741
		c3.066,1.3528,6.3432,0.3957,8.1983-2.035c5.5048-7.2177,12.2739-13.4454,16.8515-21.406
		c0.5643-0.9835,1.3035-2.5313,3.0923-1.9835c-0.5313-2.7952,1.6438-3.6698,3.4523-4.683
		c10.9373-6.1569,21.3929-3.9406,31.733,1.7624c13.5413,7.4685,25.6337,17.0363,38.0694,26.0989
		c6.9968,5.0974,14.8251,8.2458,23.0663,10.576c2.9439,0.8382,5.8415,1.8152,8.9142,2.099
		c2.9142,0.2642,3.9771,2.0266,4.2211,4.8318c0.756,8.6403-0.5049,16.9043-4.3103,24.6931
		c-1.0724,2.1916-0.9372,4.0462,0.2048,6.0132c-7.2245,13.7231-15.8221,26.6009-24.2081,39.624
		c-5.647,8.7661-30.0565,54.0994-36.9474,65.5253c-2.1884,3.6238-4.3137,6.9045-6.2971,9.5182
		c-2.964,3.8945-5.0528,7.9078-4.9407,12.9108c0.0825,3.6504,1.7294,6.0659,5.0826,7.5249
		c3.8645,1.6766,7.8879,2.6338,12.0197,3.4061c2.9704,0.5544,5.9045,1.2409,8.8186,1.9932
		c10.7987,2.7725,21.3105,6.5878,32.0795,9.4722c14.0397,3.7625,27.5018,9.2408,41.1421,14.1782
		c1.2707,0.462,2.2673,1.0958,2.9737,1.9474c0.023,0.0328,0.0297,0.0723,0.0527,0.1054c2.1254,0.4687,4.0365,1.2209,5.7361,2.2048
		c4.5776,0.7786,8.2343,2.8314,10.9704,5.6567c0.9706,0.1697,1.8892,0.4106,2.7779,0.6894
		c-2.3005,2.1606-3.7933,5.129-3.6031,8.3997c0.1487,2.5544,0.7921,4.8251,1.2511,7.2344c-0.2409-0.977-0.1815,1.1022-0.2112,2.2045
		c-0.0828,0.5609-0.1916,1.3069-0.218,1.4717c-0.4785,2.8848-0.1585,5.7494,0.9175,8.2114
		c0.2045,2.3102,0.4489,4.6205,0.7063,6.9308c1.5908,14.2245,3.8449,28.3963,2.6963,42.8585
		c-1.2772,16.066,1.3204,32.071,1.9175,48.1174c0.2508,6.7656-0.1453,13.4851-1.439,20.1568
		c-0.3961,2.0527-0.8878,3.8745-2.3761,5.4259c-2.4489,2.5479-2.3367,5.1088-0.1352,7.9141
		c3.881,4.9373,5.4786,10.0792,2.7195,16.4819c-3.4326,7.9587-0.5482,10.1437,8.2474,9.6948
		c4.8548-0.2508,9.7031-0.6205,14.551-0.416c7.6834,0.3234,15.3601,0.858,23.0367,1.3336c2.7128,0.1713,5.3928-0.0463,8.0592-0.515
		c1.1024-0.1849,2.4489-0.4952,2.7195-1.5049c1.1883-4.4884,4.6108-3.4655,7.4885-2.9703
		c4.6634,0.8054,9.3631-0.6006,14.0431,0.5874c0.9507,0.2375,2.3762-1.7029,2.4718-3.2144c0.0828-1.3336-0.3795-2.7858-2.0132-3.114
		c-1.4455-0.2971-2.9338-0.4555-4.4059-0.5414c-5.9274-0.3297-12.0724,0.2708-17.7427-1.0891
		c-10.1583-2.4357-20.396-5.2212-29.9142-9.4125c-8.2772-3.6435-10.845-12.1255-11.0992-20.7065
		c-0.7722-26.0383-4.1089-51.9968-2.7425-78.0895c0.4785-9.2474,1.3167-18.4755,2.2309-27.6965
		c0.2311-2.317,0.4326-4.6404,0.6732-6.9571c0.0365-0.3434,0.1024-0.6205,0.1751-0.8845c0.3961-0.482,0.7161-1.0101,1.0132-1.5581
		c0.1487-0.0858,0.3004-0.1649,0.4687-0.2112c-0.1058-0.0131-0.198-0.0394-0.3004-0.0526c0.3893-0.7723,0.6965-1.5975,0.8449-2.4883
		c0.5576-3.3601,1.4292-6.9508,1.2278-10.3763c-0.1122-1.9078-0.3102-3.8682-0.8053-5.7228
		c-0.0757-0.287-0.1682-0.8837-0.2498-1.4166c0.1445,0.0427,0.2859,0.0964,0.4313,0.136c8.36,2.2838,9.9342,8.3566,10.0562,15.6172
		c0.1058,6.251-2.198,11.8616-4.8415,17.3403c-2.3005,4.7722-4.802,9.419-4.1883,15.0163c0.1848,1.6966,0.3961,3.3333,2.1254,4.0396
		c1.878,0.766,2.9771-0.5543,4.0429-1.8615c1.7229-2.1121,2.6668-4.6533,3.9507-7.0031c1.3498-2.4752,2.924-3.1356,4.6864-0.218
		c3.6303,6.0133,6.8216,12.2378,9.3333,18.8055c0.8185,2.1451,1.7361,4.251,2.4424,6.4359
		c0.7756,2.3961,12.4257,7.4323,12.4358,1.0165c0.0064-7.901-2.5316-15.2675-5.6767-22.1918
		c-5.1454-11.3201-7.8947-23.1288-9.5283-35.3005c-0.9074-6.7656-3.4093-11.934-10.2046-15.208
		c-5.5411-2.671-10.9006-5.7198-16.2426-8.8085c-0.0199-0.5358-0.0384-1.0717-0.0644-1.6072
		c-0.3893-7.9011-1.4752-15.7691-1.9209-23.6702c-0.7259-12.8054,1.4491-93.1558,2.2873-105.9346
		c0.7493-2.7658,1.3566-5.5381,1.2146-8.429c0.1122-0.7658,0.2244-1.5381,0.3298-2.297c0.3599-1.8947,0.7131-3.789,1.0662-5.6766
		c0.2045-0.9508,0.4123-1.8947,0.6205-2.8452l0,0c0.1981-0.5018,0.264-1.1355,0.6138-1.4853
		c6.9406-6.8714,6.3728-7.2011,8.7888-16.3695c1.8746-7.1222,2.7391-14.9837,8.848-20.5085
		c1.6337-1.4717,2.9473-2.5215,5.2941-2.8581c16.7987-2.4224,32.6137-8.0197,48.03-15.0164
		c13.2739-6.0263,26.9833-10.7263,41.9011-9.7824c2.7591,0.1717,3.6996-2.3482,5.9406-2.9651
		c24.2841-6.6996,42.7-21.6176,56.8618-41.9178c6.0034-8.601,8.7527-18.662,10.0035-29.167
		c3.1186-26.1997-4.4225-50.2313-14.9904-73.5237c-8.7095-19.1948-19.5281-37.325-29.657-55.7989
		c-7.1221-12.9903-27.3795-43.1522-31.4654-57.4196c-1.4883-5.1845-2.1913-10.8149-2.637-16.4176
		c-0.3928-4.9023-1.5874-9.9423-2.1947-14.9653c-1.0957-9.086-0.2839-17.8418,1.9142-26.8584
		c1.7097-7.0162,4.9835-12.9586,8.6503-18.6467c3.7723-5.8466,8.9802-10.7808,15.8052-13.4442
		c1.4819-0.5777,2.8287-1.4982,4.2938-2.1273c5.3103-2.2788,15.0134-0.0344,19.1651,4.8288
		c4.3502,5.0956,8.8055,10.1634,14.8187,13.5973c5.7493,3.2873,11.8352,1.6635,17.8022,1.9175
		c1.683,2.292,4.6074,2.5543,6.845,3.9967c8.8382,5.7047,15.9603,12.9373,21.9637,21.4376
		c0.3698,0.5229,0.9604,0.8878,1.4488,1.3265c-0.2342,2.4934,1.4786,4.2657,2.4161,6.3004
		c5.4255,11.7758,6.4124,24.0681,4.5742,36.7477c-0.6799,4.6864-0.4194,4.8254,3.9966,3.4093
		c8.2211-2.637,14.3929-7.83,18.614-15.2675c6.9801-12.2803,12.1289-25.1996,13.2577-39.4689
		C678.961,123.9265,678.6414,120.9925,678.168,117.6995z M203.4082,396.8894l0.0883,0.1295
		C203.4671,396.9757,203.4376,396.9326,203.4082,396.8894L203.4082,396.8894z M203.0616,397.4808
		c0.2145-0.0521,0.4291-0.1043,0.6436-0.1559h0.0001C203.4907,397.3764,203.2761,397.4287,203.0616,397.4808z M407.8683,500.023
		c-0.097-0.333-0.1478-0.7063-0.2747-0.9988C407.7205,499.3167,407.7712,499.69,407.8683,500.023z M373.469,632.6714
		c-6.7297-3.3401-13.5118-6.6139-20.4622-9.4455c-11.7792-4.7922-23.657-9.3533-35.5384-13.9011
		c-2.4553-0.9373-4.9075-1.8812-7.3631-2.825c-3.3893-1.2938-3.9601-3.043-2.7918-6.4888c0.5806-1.7161,1.2771-3.3729,2.0264-4.9967
		c2.6698-5.7888,6.1913-11.1221,9.1616-16.7261c7.6635-14.4885,35.3039-70.7991,45.7329-83.3471
		c3.6736,0.7854,5.6635-1.6698,7.8054-3.9604c4.3762-4.6796,8.2475-9.888,14.188-12.9173c3.2742-1.6703,4.3931-0.482,4.6307,2.6996
		c0.5576,7.3991,3.5347,14.066,6.3431,20.779c1.1649-0.2177,2.6073-0.1319,2.6073-1.8746c0-1.1222,0.1915-2.1896,0.6684-3.0091
		c-0.4769,0.8195-0.6684,1.8871-0.6684,3.0091c0,1.7427-1.4424,1.657-2.6073,1.8746c0.1386,7.0166,0.0693,14.0463,0.4458,21.0563
		c1.0343,19.2125,1.8098,92.5526-0.7513,122.9918C389.087,641.6468,381.278,637.5493,373.469,632.6714z M415.4755,668.3218
		c-0.0073-0.1258-0.027-0.2483-0.0377-0.3734c0.0059,0.0018,0.0117,0.0038,0.0176,0.0056
		C415.4615,668.0698,415.4674,668.1815,415.4755,668.3218z M414.9277,495.2383c-0.1815,0.4009-0.3698,0.7957-0.5583,1.1874
		C414.5579,496.034,414.7462,495.6393,414.9277,495.2383c0.5107,0.1913,0.9416,0.4171,1.3004,0.6789
		C415.8693,495.6555,415.4384,495.4297,414.9277,495.2383z M626.513,61.3458c0.176-0.1274,0.3557-0.2469,0.5303-0.3775
		C626.8753,61.0939,626.6966,61.2199,626.513,61.3458z M607.4955,102.2246c0.4847-1.433,0.8511-2.9129,1.0177-4.4904
		C608.3466,99.3117,607.9803,100.7916,607.4955,102.2246z M642.8581,127.0161c0.6075-0.313,1.2448-0.5791,1.9095-0.8022
		c0.2178,0.2231,0.606,0.4306,0.5973,0.4314C644.3916,126.7134,643.5728,126.8383,642.8581,127.0161z"/>
	<path fill="#E50051" d="M541.3874,274.9481c0.1119,0.0416,0.2267,0.0833,0.3388,0.1247c-0.0067-0.1166-0.0158-0.2344-0.0251-0.3506
		C541.5952,274.7982,541.4929,274.8739,541.3874,274.9481z"/>
	<polygon fill="#E50051" points="240.8111,413.7872 240.9067,413.8798 240.8179,413.774 	"/>
</g>
</svg>
